<svg width="41" height="52" viewBox="0 0 41 52" fill="none" xmlns="http://www.w3.org/2000/svg">
<path opacity="0.6" d="M26.6051 52C26.5332 51.7975 26.4917 51.6075 26.5364 51.4611C26.8096 50.5935 26.6738 48.7914 26.4342 48.5577C26.1947 48.3241 23.9363 48.5905 22.4988 47.8895C21.0614 47.1886 17.6754 42.2495 17.0589 41.1156C16.4424 39.9832 13.8455 38.5783 13.8455 38.5783C13.8455 38.5783 17.4423 39.0082 19.6559 39.0456C19.6559 39.0456 26.9645 46.5765 28.2949 48.9253C28.9322 50.0515 29.1462 51.1527 29.2724 51.9984H37.0186V50.3022C37.0186 49.1668 33.944 46.9799 33.944 46.17C33.944 45.36 29.4209 35.7918 27.4165 33.8386C27.4915 33.2327 27.3143 32.6564 26.9134 31.8745C26.2298 30.5396 24.1407 27.3341 24.1407 27.3341V26.0008C24.1407 25.6005 23.9203 25.7174 23.5929 25.3996C23.4092 25.2189 23.3134 25.3747 23.2639 25.3357L23.3917 25.3124C23.3917 25.3124 23.3405 25.3124 23.2511 25.3186C23.2255 25.2641 23.2176 25.1068 23.2176 24.7003C23.2176 24.3732 22.9876 23.5648 22.6649 22.5897C22.6649 22.5928 32.1856 31.5863 32.4411 31.3371C32.6967 31.0895 33.1199 31.3371 33.1199 31.0614C33.1199 30.7857 21.2882 18.7892 21.2882 18.7892C20.9544 17.9154 20.6941 17.2566 20.6318 17.1008C21.376 17.174 21.9414 17.2254 22.1219 17.2254C22.8406 17.2254 23.3198 17.7924 23.9347 17.7924C24.5496 17.7924 24.9281 17.1584 25.0639 17.7924C25.2012 18.4263 30.5373 19.8608 32.7957 20.7954C35.0541 21.7284 36.6975 23.2642 36.6975 23.7984C36.6975 24.3327 35.6706 25.666 35.9101 26.6348C36.1481 27.602 36.7997 27.6363 36.7997 27.803C36.7997 27.9696 37.2438 27.7033 37.3811 27.8372C37.5185 27.9696 37.9465 28.387 38.202 28.6363C38.4592 28.8855 38.9032 28.1207 39.0581 27.9696C39.2114 27.8201 39.8439 28.236 40.0499 28.236C40.256 28.236 40.6313 27.2687 40.8038 27.102C40.9747 26.9338 40.684 26.2843 40.9747 26.0008C41.2654 25.7174 38.9559 23.0975 38.9559 22.8312C38.9559 22.5648 32.1472 14.9903 28.897 14.4233C28.897 14.4233 27.7343 14.0557 27.4261 13.4202C27.1178 12.7863 23.7302 9.88297 22.2593 9.88297C21.3185 9.88297 19.4962 9.35339 17.5716 9.20542H17.57L21.0965 8.85029C21.0965 8.85029 20.2421 8.51697 20.5487 7.78179C20.857 7.04817 21.8839 7.98116 23.0467 7.98116C24.2094 7.98116 23.3198 6.84724 23.0131 6.54818C22.7049 6.24601 23.0131 6.54818 22.7736 5.04511C22.534 3.5436 25.8193 3.74298 22.6697 3.74298C19.5202 3.74298 16.1007 5.81145 14.9715 6.37996C13.8423 6.94692 12.8345 6.8301 12.7147 6.71329C12.5949 6.59647 12.3218 6.59647 11.9608 6.94692C11.6031 7.29894 11.2086 6.94692 10.3876 6.14633C9.5683 5.34573 10.319 5.84571 10.319 5.01241C10.319 4.1791 10.6272 4.04515 10.6272 3.44392C10.6272 2.84269 10.7805 2.99378 11.175 2.60906C11.5679 2.22589 11.1415 2.34271 10.6623 1.87388C10.1832 1.4066 12.341 0.540586 12.341 0.540586C12.341 0.540586 11.2118 0.707247 10.6288 0.707247C10.0458 0.707247 7.5479 0.24153 6.52093 0.0406018C5.49396 -0.158769 3.47676 0.4409 3.47676 0.4409C2.17668 1.1091 1.38928 2.77727 1.38928 3.44548C1.38928 4.11368 1.45796 5.47968 1.45796 5.47968C1.45796 5.47968 4.77684 4.67908 4.9126 4.54669C5.04996 4.41274 5.04996 5.64634 5.04996 5.64634C5.04996 5.64634 1.44039 7.59799 1.32061 7.71481C1.20082 7.83163 1.01236 8.61665 1.01236 8.61665C1.01236 8.61665 1.78218 8.9344 2.00419 9.14935C2.22619 9.36741 2.87623 9.99979 3.08226 10.2023C3.2867 10.4032 4.2961 11.1524 4.2961 11.386C4.2961 11.6197 4.87906 11.3191 5.0835 11.3191C5.28793 11.3191 5.76708 10.4016 6.23025 10.4016C6.69342 10.4016 7.60859 10.0605 7.7188 10.7848C7.8306 11.5106 7.33548 11.7178 7.58304 12.1524C7.8306 12.5854 8.15162 12.5106 8.15162 12.8984C8.15162 13.2863 7.78588 13.4638 8.15162 13.8205C8.51737 14.1772 8.72181 13.9 8.72181 14.3766C8.72181 14.8532 8.91666 21.0602 8.91666 21.3608C8.91666 21.6614 10.5426 23.5803 11.1064 24.1317C11.6702 24.6816 12.4064 26.5335 12.7147 26.8341C13.0229 27.1348 12.7307 26.8513 13.2961 27.4011C13.8614 27.9509 13.673 27.9509 13.4334 27.9509C13.1938 27.9509 4.94774 28.0677 3.06629 29.2359C1.18325 30.4057 -0.185509 32.2748 0.0205238 34.2763C0.226556 36.2778 1.32061 38.9132 1.52504 39.9817C1.73107 41.0486 4.67303 42.0502 6.34844 41.5486C8.02545 41.0486 8.23148 41.5159 8.50459 41.5159C8.77771 41.5159 18.2552 49.025 19.0777 49.8256C19.3924 50.134 20.365 50.9969 21.4383 52H26.6035H26.6051Z" fill="white"/>
</svg>
